<svg width="181" height="45" viewBox="0 0 181 45" fill="none" xmlns="http://www.w3.org/2000/svg">
<path d="M22.6851 35.9162L1.32923 23.5796C0.97998 23.3857 0.553123 23.6314 0.553123 24.0322V32.8902C0.553123 33.3945 0.82476 33.8471 1.25162 34.1058L19.2573 44.5025C19.6841 44.7483 20.2274 44.7483 20.6543 44.5025L25.3626 41.7869V41.774L31.1834 38.4119V38.4249L35.4908 35.9421C39.0221 33.8989 39.242 28.8299 35.8401 26.5798C35.7625 26.5281 35.6978 26.4893 35.6202 26.4375L12.4664 13.0536C12.4534 13.0407 12.4275 13.0277 12.4146 13.0148C9.69824 11.4242 9.73705 7.49311 12.4664 5.91549L14.5489 4.71288C14.6394 6.52326 15.6355 8.17848 17.2265 9.08366L38.5823 21.4072C38.9316 21.6012 39.3584 21.3554 39.3584 20.9546L39.3584 12.1096C39.3584 11.6053 39.0868 11.1527 38.6599 10.8941L20.6543 0.497265C20.2274 0.251563 19.6841 0.251563 19.2573 0.497265L17.1747 1.69988L6.56794 7.8164L4.3043 9.13539C0.773022 11.1785 0.604862 16.2864 4.0844 18.4459C4.14908 18.4848 4.22669 18.5365 4.29137 18.5753L27.4581 31.9463C27.4711 31.9593 27.4969 31.9722 27.5099 31.9851C30.2133 33.5756 30.1745 37.5067 27.4581 39.0715L25.3626 40.287C25.2592 38.4637 24.2632 36.8214 22.6851 35.9162Z" fill="#268FCA"/>
<path d="M57.8464 18.0088C56.7099 18.0088 55.6454 17.9208 54.653 17.7447C53.6765 17.5847 52.8121 17.3045 52.0598 16.9044C51.3235 16.4882 50.7392 15.9199 50.307 15.1996C49.8908 14.4633 49.6828 13.5429 49.6828 12.4384C49.6828 12.4064 49.6828 12.3663 49.6828 12.3183C49.6828 12.2543 49.6908 12.1903 49.7068 12.1262H54.725C54.709 12.1903 54.701 12.2543 54.701 12.3183C54.701 12.3663 54.701 12.4144 54.701 12.4624C54.701 12.9426 54.813 13.3108 55.0371 13.5669C55.2612 13.823 55.5734 13.9991 55.9735 14.0951C56.3897 14.1751 56.8539 14.2152 57.3662 14.2152C57.5582 14.2152 57.7583 14.2152 57.9664 14.2152C58.1905 14.1991 58.3986 14.1751 58.5907 14.1431C58.7988 14.0951 58.9829 14.0311 59.143 13.951C59.319 13.871 59.4551 13.767 59.5511 13.6389C59.6472 13.4948 59.6952 13.3188 59.6952 13.1107C59.6952 12.8065 59.5591 12.5664 59.287 12.3903C59.0149 12.2143 58.6467 12.0622 58.1825 11.9341C57.7183 11.8061 57.1981 11.686 56.6218 11.574C56.0456 11.4619 55.4453 11.3339 54.821 11.1898C54.1968 11.0297 53.5965 10.8297 53.0202 10.5895C52.444 10.3494 51.9237 10.0453 51.4595 9.67714C50.9953 9.29297 50.6272 8.82076 50.3551 8.26051C50.0829 7.68426 49.9469 6.99595 49.9469 6.1956C49.9469 5.23517 50.147 4.41881 50.5471 3.74651C50.9473 3.07421 51.4916 2.52997 52.1799 2.11379C52.8842 1.6976 53.6765 1.39347 54.5569 1.20138C55.4533 1.0093 56.3897 0.913254 57.3662 0.913254C58.3586 0.913254 59.287 1.0173 60.1514 1.22539C61.0318 1.41748 61.8081 1.72161 62.4804 2.1378C63.1527 2.55398 63.681 3.08222 64.0651 3.7225C64.4493 4.36278 64.6494 5.12312 64.6654 6.00351V6.29164H59.6952V6.1956C59.6952 5.90747 59.6232 5.63535 59.4791 5.37924C59.335 5.12312 59.1029 4.91503 58.7828 4.75496C58.4787 4.59489 58.0705 4.51485 57.5582 4.51485C57.078 4.51485 56.6699 4.56287 56.3337 4.65892C56.0136 4.75496 55.7735 4.89102 55.6134 5.0671C55.4533 5.22717 55.3733 5.40325 55.3733 5.59533C55.3733 5.89947 55.5093 6.14758 55.7815 6.33966C56.0536 6.53175 56.4217 6.69182 56.886 6.81987C57.3502 6.94793 57.8704 7.06799 58.4466 7.18004C59.0229 7.29208 59.6232 7.42014 60.2474 7.56421C60.8717 7.69226 61.472 7.86834 62.0482 8.09244C62.6245 8.31654 63.1447 8.61267 63.6089 8.98083C64.0731 9.33299 64.4413 9.77319 64.7134 10.3014C64.9855 10.8297 65.1216 11.4779 65.1216 12.2463C65.1216 13.6069 64.8015 14.7114 64.1612 15.5598C63.5369 16.4081 62.6725 17.0324 61.568 17.4326C60.4795 17.8168 59.239 18.0088 57.8464 18.0088Z" fill="white"/>
<path d="M73.9738 18.0088C72.5332 18.0088 71.2766 17.7687 70.2042 17.2885C69.1477 16.7923 68.3233 16.056 67.7311 15.0795C67.1388 14.0871 66.8427 12.8546 66.8427 11.3819C66.8427 9.89324 67.1388 8.66069 67.7311 7.68426C68.3233 6.69182 69.1477 5.95549 70.2042 5.47528C71.2766 4.97906 72.5332 4.73095 73.9738 4.73095C74.9343 4.73095 75.8387 4.83499 76.687 5.04309C77.5354 5.25118 78.2798 5.57132 78.92 6.00351C79.5603 6.4357 80.0565 6.99595 80.4087 7.68426C80.7769 8.37256 80.9609 9.19693 80.9609 10.1574H76.3269C76.3269 9.66114 76.2308 9.25295 76.0388 8.93281C75.8627 8.61267 75.5986 8.38057 75.2464 8.2365C74.8942 8.07643 74.4701 7.9964 73.9738 7.9964C73.4136 7.9964 72.9574 8.10845 72.6052 8.33255C72.2691 8.54064 72.021 8.85278 71.8609 9.26896C71.7008 9.66914 71.6208 10.1494 71.6208 10.7096V12.0782C71.6208 12.6385 71.7008 13.1187 71.8609 13.5188C72.037 13.919 72.3011 14.2312 72.6533 14.4553C73.0214 14.6634 73.4936 14.7674 74.0699 14.7674C74.5981 14.7674 75.0383 14.6954 75.3905 14.5513C75.7586 14.3912 76.0388 14.1511 76.2308 13.831C76.4229 13.4948 76.519 13.0706 76.519 12.5584H80.9609C80.9609 13.5188 80.7769 14.3512 80.4087 15.0555C80.0565 15.7438 79.5603 16.3041 78.92 16.7363C78.2798 17.1685 77.5354 17.4886 76.687 17.6967C75.8387 17.9048 74.9343 18.0088 73.9738 18.0088Z" fill="white"/>
<path d="M87.1795 18.0088C86.5232 18.0088 85.923 17.9448 85.3787 17.8168C84.8345 17.7047 84.3623 17.5126 83.9621 17.2405C83.5619 16.9524 83.2498 16.5842 83.0257 16.136C82.8176 15.6718 82.7135 15.1116 82.7135 14.4553C82.7135 13.5108 82.9056 12.7425 83.2898 12.1502C83.69 11.558 84.2662 11.1018 85.0186 10.7816C85.7709 10.4615 86.6833 10.2454 87.7558 10.1333C88.8442 10.0053 90.0848 9.94126 91.4774 9.94126V9.31698C91.4774 8.96483 91.3894 8.6847 91.2133 8.47661C91.0532 8.25251 90.8371 8.08444 90.565 7.97239C90.2929 7.86034 89.9808 7.80431 89.6286 7.80431C89.3565 7.80431 89.0764 7.83633 88.7882 7.90035C88.5001 7.96438 88.26 8.07643 88.0679 8.2365C87.8918 8.39657 87.8038 8.62067 87.8038 8.9088V9.00484H83.0977C83.0817 8.94082 83.0737 8.88479 83.0737 8.83677C83.0737 8.78875 83.0737 8.73272 83.0737 8.6687C83.0737 7.88435 83.3218 7.20405 83.818 6.62779C84.3302 6.03553 85.0746 5.57932 86.051 5.25918C87.0434 4.92303 88.26 4.75496 89.7006 4.75496C90.8691 4.75496 91.9496 4.88302 92.9421 5.13913C93.9345 5.39524 94.7349 5.82744 95.3431 6.4357C95.9514 7.02797 96.2555 7.84433 96.2555 8.88479V13.831C96.2555 14.0871 96.3196 14.3112 96.4476 14.5033C96.5757 14.6794 96.7678 14.7674 97.0239 14.7674H97.8883V17.5286C97.6962 17.6407 97.376 17.7447 96.9278 17.8408C96.4956 17.9528 95.9834 18.0088 95.3912 18.0088C94.7509 18.0088 94.1906 17.9448 93.7104 17.8168C93.2302 17.6887 92.838 17.5046 92.5339 17.2645C92.2458 17.0244 92.0457 16.7443 91.9336 16.4241H91.7655C91.4294 16.7283 91.0372 17.0004 90.589 17.2405C90.1568 17.4806 89.6606 17.6647 89.1004 17.7927C88.5401 17.9368 87.8998 18.0088 87.1795 18.0088ZM89.1244 15.0315C89.4285 15.0315 89.7166 14.9915 89.9888 14.9115C90.2769 14.8154 90.533 14.6954 90.7571 14.5513C90.9812 14.3912 91.1573 14.2072 91.2853 13.9991C91.4134 13.775 91.4774 13.5349 91.4774 13.2787V12.1983C90.533 12.1983 89.7647 12.2703 89.1724 12.4144C88.5961 12.5584 88.172 12.7505 87.8998 12.9906C87.6277 13.2307 87.4916 13.5108 87.4916 13.831C87.4916 14.1511 87.5717 14.3992 87.7318 14.5753C87.8918 14.7514 88.0919 14.8714 88.332 14.9355C88.5881 14.9995 88.8523 15.0315 89.1244 15.0315Z" fill="white"/>
<path d="M99.4488 17.7207V0.312988H104.227V17.7207H99.4488Z" fill="white"/>
<path d="M110.478 17.7207L105.676 5.04309H110.814L112.038 9.14891C112.118 9.37301 112.214 9.70916 112.327 10.1574C112.455 10.6056 112.591 11.0778 112.735 11.574C112.895 12.0702 113.031 12.5264 113.143 12.9426H113.311C113.423 12.5584 113.551 12.1262 113.695 11.646C113.839 11.1498 113.975 10.6776 114.103 10.2294C114.231 9.78119 114.335 9.42103 114.415 9.14891L115.64 5.04309H120.346L115.496 17.7207H110.478Z" fill="white"/>
<path d="M128.35 18.0088C126.909 18.0088 125.652 17.7687 124.58 17.2885C123.523 16.7923 122.699 16.056 122.107 15.0795C121.514 14.0871 121.218 12.8546 121.218 11.3819C121.218 9.89324 121.514 8.66069 122.107 7.68426C122.699 6.70783 123.523 5.9795 124.58 5.49929C125.652 5.00307 126.909 4.75496 128.35 4.75496C129.79 4.75496 131.047 5.00307 132.119 5.49929C133.192 5.9795 134.024 6.70783 134.616 7.68426C135.209 8.66069 135.505 9.89324 135.505 11.3819C135.505 12.8546 135.209 14.0871 134.616 15.0795C134.024 16.056 133.192 16.7923 132.119 17.2885C131.047 17.7687 129.79 18.0088 128.35 18.0088ZM128.35 14.7674C128.91 14.7674 129.366 14.6634 129.718 14.4553C130.07 14.2312 130.326 13.919 130.486 13.5188C130.647 13.1187 130.727 12.6385 130.727 12.0782V10.7096C130.727 10.1494 130.647 9.66914 130.486 9.26896C130.326 8.85278 130.07 8.54064 129.718 8.33255C129.366 8.10845 128.91 7.9964 128.35 7.9964C127.789 7.9964 127.333 8.10845 126.981 8.33255C126.645 8.54064 126.397 8.85278 126.237 9.26896C126.077 9.66914 125.996 10.1494 125.996 10.7096V12.0782C125.996 12.6385 126.077 13.1187 126.237 13.5188C126.397 13.919 126.645 14.2312 126.981 14.4553C127.333 14.6634 127.789 14.7674 128.35 14.7674Z" fill="white"/>
<path d="M137.81 17.7207V5.04309H141.723L142.035 6.96394H142.203C142.54 6.46772 142.932 6.05954 143.38 5.7394C143.828 5.40325 144.324 5.15514 144.869 4.99507C145.413 4.83499 145.973 4.75496 146.549 4.75496C147.558 4.75496 148.382 4.94704 149.022 5.33121C149.679 5.69938 150.167 6.23562 150.487 6.93993C150.807 7.64424 150.967 8.50062 150.967 9.50907V17.7207H146.189V10.0853C146.189 9.8132 146.149 9.5731 146.069 9.365C146.005 9.14091 145.909 8.94882 145.781 8.78875C145.653 8.62868 145.485 8.50862 145.277 8.42859C145.085 8.33255 144.853 8.28453 144.581 8.28453C144.18 8.28453 143.828 8.38057 143.524 8.57265C143.236 8.74873 143.004 8.98884 142.828 9.29297C142.668 9.5811 142.588 9.90925 142.588 10.2774V17.7207H137.81Z" fill="white"/>
<path d="M153.824 3.55443V0.312988H158.603V3.55443H153.824ZM153.824 17.7207V5.04309H158.603V17.7207H153.824Z" fill="white"/>
<path d="M48.7944 44.3988L55.2533 27.9275H58.6868L65.1697 44.3988H62.2884L60.8237 40.5811H53.0203L51.5556 44.3988H48.7944ZM53.8847 38.3001H59.9353L58.0865 33.4739C58.0385 33.3299 57.9665 33.1298 57.8704 32.8737C57.7744 32.6175 57.6703 32.3374 57.5583 32.0333C57.4622 31.7291 57.3582 31.425 57.2462 31.1209C57.1501 30.8007 57.0621 30.5126 56.982 30.2565H56.838C56.7419 30.5606 56.6219 30.9208 56.4778 31.337C56.3337 31.7532 56.1897 32.1533 56.0456 32.5375C55.9176 32.9217 55.8055 33.2338 55.7095 33.4739L53.8847 38.3001Z" fill="white"/>
<path d="M66.954 44.3988V31.7692H69.0189L69.235 33.8101H69.379C69.5231 33.4099 69.7072 33.0337 69.9313 32.6816C70.1714 32.3294 70.4755 32.0413 70.8437 31.8172C71.2279 31.5931 71.6921 31.481 72.2363 31.481C72.4924 31.481 72.7165 31.505 72.9086 31.5531C73.1167 31.6011 73.2768 31.6411 73.3888 31.6731V34.0262H72.5484C72.0362 34.0262 71.58 34.1062 71.1798 34.2663C70.7957 34.4263 70.4675 34.6664 70.1954 34.9866C69.9393 35.2907 69.7472 35.6669 69.6191 36.1151C69.5071 36.5633 69.4511 37.0675 69.4511 37.6278V44.3988H66.954Z" fill="white"/>
<path d="M80.0383 44.6869C78.7737 44.6869 77.7172 44.4548 76.8689 43.9906C76.0205 43.5104 75.3802 42.782 74.948 41.8056C74.5318 40.8292 74.3237 39.5886 74.3237 38.084C74.3237 36.5793 74.5398 35.3467 74.972 34.3863C75.4042 33.4099 76.0445 32.6816 76.8929 32.2014C77.7573 31.7211 78.8137 31.481 80.0623 31.481C80.9267 31.481 81.679 31.5931 82.3193 31.8172C82.9596 32.0253 83.5038 32.3454 83.952 32.7776C84.4002 33.1938 84.7283 33.714 84.9364 34.3383C85.1605 34.9626 85.2726 35.6749 85.2726 36.4753H82.7515C82.7515 35.803 82.6554 35.2507 82.4633 34.8185C82.2713 34.3863 81.9751 34.0662 81.5749 33.8581C81.1748 33.634 80.6545 33.5219 80.0143 33.5219C79.342 33.5219 78.7737 33.682 78.3095 34.0022C77.8453 34.3063 77.4931 34.7785 77.253 35.4188C77.0129 36.0431 76.8929 36.8674 76.8929 37.8919V38.3001C76.8929 39.2765 77.0049 40.0929 77.229 40.7491C77.4691 41.3894 77.8213 41.8696 78.2855 42.1898C78.7657 42.4939 79.374 42.646 80.1103 42.646C80.7506 42.646 81.2628 42.5339 81.647 42.3098C82.0472 42.0697 82.3433 41.7336 82.5354 41.3014C82.7435 40.8532 82.8475 40.317 82.8475 39.6927H85.2726C85.2726 40.445 85.1605 41.1253 84.9364 41.7336C84.7283 42.3419 84.4002 42.8701 83.952 43.3183C83.5198 43.7505 82.9756 44.0866 82.3193 44.3267C81.663 44.5668 80.9026 44.6869 80.0383 44.6869Z" fill="white"/>
<path d="M87.7991 44.3988V27.0391H90.2963V33.2818H90.4643C90.7685 32.8977 91.1126 32.5775 91.4968 32.3214C91.881 32.0493 92.3131 31.8412 92.7934 31.6971C93.2736 31.5531 93.8018 31.481 94.3781 31.481C95.1784 31.481 95.8827 31.6251 96.491 31.9132C97.0993 32.1853 97.5715 32.6335 97.9076 33.2578C98.2598 33.8821 98.4359 34.7225 98.4359 35.7789V44.3988H95.9388V36.1631C95.9388 35.6829 95.8747 35.2827 95.7467 34.9626C95.6346 34.6424 95.4665 34.3863 95.2425 34.1942C95.0183 34.0022 94.7542 33.8661 94.4501 33.7861C94.146 33.706 93.8098 33.666 93.4416 33.666C92.8654 33.666 92.3372 33.8021 91.8569 34.0742C91.3927 34.3463 91.0166 34.7305 90.7284 35.2267C90.4403 35.7229 90.2963 36.3152 90.2963 37.0035V44.3988H87.7991Z" fill="white"/>
<path d="M101.563 29.5842V27.0391H104.06V29.5842H101.563ZM101.563 44.3988V31.7692H104.06V44.3988H101.563Z" fill="white"/>
<path d="M110.43 44.6869C109.709 44.6869 109.141 44.5508 108.725 44.2787C108.325 43.9906 108.037 43.6304 107.861 43.1982C107.701 42.75 107.62 42.2778 107.62 41.7816V33.8341H106.036V31.7692H107.669L108.125 28.2396H110.118V31.7692H112.399V33.8341H110.118V41.4935C110.118 41.8616 110.198 42.1418 110.358 42.3338C110.518 42.5259 110.782 42.622 111.15 42.622H112.399V44.3027C112.239 44.3668 112.038 44.4228 111.798 44.4708C111.574 44.5348 111.342 44.5828 111.102 44.6149C110.862 44.6629 110.638 44.6869 110.43 44.6869Z" fill="white"/>
<path d="M119.834 44.6869C118.538 44.6869 117.449 44.4548 116.569 43.9906C115.705 43.5104 115.048 42.782 114.6 41.8056C114.152 40.8292 113.928 39.5886 113.928 38.084C113.928 36.5633 114.152 35.3227 114.6 34.3623C115.048 33.3859 115.713 32.6656 116.593 32.2014C117.473 31.7211 118.57 31.481 119.882 31.481C121.083 31.481 122.083 31.7131 122.884 32.1773C123.7 32.6255 124.316 33.3138 124.733 34.2423C125.149 35.1707 125.357 36.3392 125.357 37.7478V38.7082H116.497C116.529 39.6046 116.665 40.357 116.905 40.9652C117.145 41.5575 117.505 41.9977 117.986 42.2858C118.482 42.5579 119.106 42.694 119.858 42.694C120.323 42.694 120.739 42.638 121.107 42.5259C121.475 42.3979 121.787 42.2218 122.043 41.9977C122.3 41.7576 122.5 41.4775 122.644 41.1573C122.788 40.8212 122.86 40.445 122.86 40.0288H125.309C125.309 40.7812 125.181 41.4455 124.925 42.0217C124.669 42.598 124.292 43.0862 123.796 43.4864C123.316 43.8705 122.74 44.1667 122.067 44.3748C121.395 44.5828 120.651 44.6869 119.834 44.6869ZM116.545 36.8834H122.74C122.74 36.2592 122.668 35.7389 122.524 35.3227C122.396 34.8905 122.203 34.5384 121.947 34.2663C121.691 33.9941 121.387 33.8021 121.035 33.69C120.683 33.562 120.283 33.4979 119.834 33.4979C119.162 33.4979 118.586 33.618 118.106 33.8581C117.641 34.0982 117.281 34.4744 117.025 34.9866C116.769 35.4828 116.609 36.1151 116.545 36.8834Z" fill="white"/>
<path d="M132.913 44.6869C131.649 44.6869 130.592 44.4548 129.744 43.9906C128.896 43.5104 128.255 42.782 127.823 41.8056C127.407 40.8292 127.199 39.5886 127.199 38.084C127.199 36.5793 127.415 35.3467 127.847 34.3863C128.279 33.4099 128.92 32.6816 129.768 32.2014C130.632 31.7211 131.689 31.481 132.937 31.481C133.802 31.481 134.554 31.5931 135.194 31.8172C135.835 32.0253 136.379 32.3454 136.827 32.7776C137.275 33.1938 137.603 33.714 137.811 34.3383C138.036 34.9626 138.148 35.6749 138.148 36.4753H135.626C135.626 35.803 135.53 35.2507 135.338 34.8185C135.146 34.3863 134.85 34.0662 134.45 33.8581C134.05 33.634 133.53 33.5219 132.889 33.5219C132.217 33.5219 131.649 33.682 131.185 34.0022C130.72 34.3063 130.368 34.7785 130.128 35.4188C129.888 36.0431 129.768 36.8674 129.768 37.8919V38.3001C129.768 39.2765 129.88 40.0929 130.104 40.7491C130.344 41.3894 130.696 41.8696 131.161 42.1898C131.641 42.4939 132.249 42.646 132.985 42.646C133.626 42.646 134.138 42.5339 134.522 42.3098C134.922 42.0697 135.218 41.7336 135.41 41.3014C135.618 40.8532 135.723 40.317 135.723 39.6927H138.148C138.148 40.445 138.036 41.1253 137.811 41.7336C137.603 42.3419 137.275 42.8701 136.827 43.3183C136.395 43.7505 135.851 44.0866 135.194 44.3267C134.538 44.5668 133.778 44.6869 132.913 44.6869Z" fill="white"/>
<path d="M143.82 44.6869C143.099 44.6869 142.531 44.5508 142.115 44.2787C141.715 43.9906 141.426 43.6304 141.25 43.1982C141.09 42.75 141.01 42.2778 141.01 41.7816V33.8341H139.426V31.7692H141.058L141.515 28.2396H143.507V31.7692H145.788V33.8341H143.507V41.4935C143.507 41.8616 143.587 42.1418 143.748 42.3338C143.908 42.5259 144.172 42.622 144.54 42.622H145.788V44.3027C145.628 44.3668 145.428 44.4228 145.188 44.4708C144.964 44.5348 144.732 44.5828 144.492 44.6149C144.252 44.6629 144.028 44.6869 143.82 44.6869Z" fill="white"/>
<path d="M151.952 44.6869C150.735 44.6869 149.751 44.3668 148.998 43.7265C148.246 43.0702 147.87 41.9577 147.87 40.389V31.7692H150.367V40.0048C150.367 40.485 150.423 40.8852 150.535 41.2053C150.663 41.5255 150.839 41.7816 151.063 41.9737C151.287 42.1658 151.551 42.3018 151.856 42.3819C152.16 42.4619 152.496 42.5019 152.864 42.5019C153.44 42.5019 153.961 42.3659 154.425 42.0937C154.905 41.8056 155.289 41.4134 155.577 40.9172C155.865 40.405 156.009 39.8207 156.009 39.1644V31.7692H158.507V44.3988H156.466L156.25 42.598H156.082C155.777 43.0622 155.417 43.4463 155.001 43.7505C154.585 44.0546 154.121 44.2867 153.608 44.4468C153.112 44.6069 152.56 44.6869 151.952 44.6869Z" fill="white"/>
<path d="M161.73 44.3988V31.7692H163.795L164.011 33.8101H164.155C164.3 33.4099 164.484 33.0337 164.708 32.6816C164.948 32.3294 165.252 32.0413 165.62 31.8172C166.004 31.5931 166.468 31.481 167.013 31.481C167.269 31.481 167.493 31.505 167.685 31.5531C167.893 31.6011 168.053 31.6411 168.165 31.6731V34.0262H167.325C166.813 34.0262 166.356 34.1062 165.956 34.2663C165.572 34.4263 165.244 34.6664 164.972 34.9866C164.716 35.2907 164.524 35.6669 164.396 36.1151C164.284 36.5633 164.227 37.0675 164.227 37.6278V44.3988H161.73Z" fill="white"/>
<path d="M175.031 44.6869C173.734 44.6869 172.646 44.4548 171.765 43.9906C170.901 43.5104 170.245 42.782 169.796 41.8056C169.348 40.8292 169.124 39.5886 169.124 38.084C169.124 36.5633 169.348 35.3227 169.796 34.3623C170.245 33.3859 170.909 32.6656 171.789 32.2014C172.67 31.7211 173.766 31.481 175.079 31.481C176.279 31.481 177.28 31.7131 178.08 32.1773C178.896 32.6255 179.513 33.3138 179.929 34.2423C180.345 35.1707 180.553 36.3392 180.553 37.7478V38.7082H171.693C171.725 39.6046 171.861 40.357 172.101 40.9652C172.342 41.5575 172.702 41.9977 173.182 42.2858C173.678 42.5579 174.302 42.694 175.055 42.694C175.519 42.694 175.935 42.638 176.303 42.5259C176.672 42.3979 176.984 42.2218 177.24 41.9977C177.496 41.7576 177.696 41.4775 177.84 41.1573C177.984 40.8212 178.056 40.445 178.056 40.0288H180.505C180.505 40.7812 180.377 41.4455 180.121 42.0217C179.865 42.598 179.489 43.0862 178.993 43.4864C178.512 43.8705 177.936 44.1667 177.264 44.3748C176.591 44.5828 175.847 44.6869 175.031 44.6869ZM171.741 36.8834H177.936C177.936 36.2592 177.864 35.7389 177.72 35.3227C177.592 34.8905 177.4 34.5384 177.144 34.2663C176.888 33.9941 176.583 33.8021 176.231 33.69C175.879 33.562 175.479 33.4979 175.031 33.4979C174.358 33.4979 173.782 33.618 173.302 33.8581C172.838 34.0982 172.478 34.4744 172.222 34.9866C171.965 35.4828 171.805 36.1151 171.741 36.8834Z" fill="white"/>
</svg>
