<svg width="180" height="45" viewBox="0 0 180 45" fill="none" xmlns="http://www.w3.org/2000/svg">
<path d="M22.1319 35.6032L0.776005 23.2666C0.426758 23.0727 -9.91821e-05 23.3184 -9.91821e-05 23.7192V32.5772C-9.91821e-05 33.0815 0.271538 33.5341 0.698395 33.7928L18.7041 44.1896C19.1309 44.4353 19.6742 44.4353 20.101 44.1896L24.8094 41.474V41.461L30.6302 38.0989V38.1119L34.9376 35.6291C38.4689 33.5859 38.6888 28.5169 35.2869 26.2668C35.2092 26.2151 35.1446 26.1763 35.067 26.1245L11.9131 12.7406C11.9002 12.7277 11.8743 12.7147 11.8614 12.7018C9.14502 11.1113 9.18382 7.18012 11.9131 5.60251L13.9957 4.39989C14.0862 6.21028 15.0822 7.86549 16.6732 8.77068L38.0291 21.0942C38.3783 21.2882 38.8052 21.0425 38.8052 20.6416L38.8052 11.7966C38.8052 11.2923 38.5336 10.8397 38.1067 10.5811L20.101 0.184277C19.6742 -0.0614256 19.1309 -0.0614256 18.7041 0.184277L16.6215 1.38689L6.01472 7.50341L3.75108 8.8224C0.219799 10.8656 0.0516396 15.9734 3.53118 18.133C3.59586 18.1718 3.67347 18.2235 3.73814 18.2623L26.9049 31.6333C26.9178 31.6463 26.9437 31.6592 26.9567 31.6721C29.6601 33.2626 29.6213 37.1937 26.9049 38.7585L24.8094 39.974C24.7059 38.1507 23.7099 36.5084 22.1319 35.6032Z" fill="#268FCA"/>
<path d="M57.2932 17.6959C56.1566 17.6959 55.0922 17.6078 54.0997 17.4317C53.1233 17.2717 52.2589 16.9915 51.5066 16.5914C50.7703 16.1752 50.186 15.6069 49.7538 14.8866C49.3376 14.1503 49.1295 13.2299 49.1295 12.1254C49.1295 12.0934 49.1295 12.0533 49.1295 12.0053C49.1295 11.9413 49.1375 11.8773 49.1535 11.8132H54.1718C54.1558 11.8773 54.1478 11.9413 54.1478 12.0053C54.1478 12.0533 54.1478 12.1014 54.1478 12.1494C54.1478 12.6296 54.2598 12.9978 54.4839 13.2539C54.708 13.51 55.0201 13.6861 55.4203 13.7821C55.8365 13.8622 56.3007 13.9022 56.8129 13.9022C57.005 13.9022 57.2051 13.9022 57.4132 13.9022C57.6373 13.8862 57.8454 13.8622 58.0375 13.8301C58.2456 13.7821 58.4297 13.7181 58.5897 13.6381C58.7658 13.558 58.9019 13.454 58.9979 13.3259C59.094 13.1818 59.142 13.0058 59.142 12.7977C59.142 12.4935 59.0059 12.2534 58.7338 12.0774C58.4617 11.9013 58.0935 11.7492 57.6293 11.6212C57.1651 11.4931 56.6449 11.373 56.0686 11.261C55.4924 11.1489 54.8921 11.0209 54.2678 10.8768C53.6435 10.7168 53.0433 10.5167 52.467 10.2766C51.8908 10.0365 51.3705 9.73232 50.9063 9.36415C50.4421 8.97998 50.074 8.50777 49.8018 7.94753C49.5297 7.37127 49.3936 6.68296 49.3936 5.88261C49.3936 4.92218 49.5937 4.10582 49.9939 3.43352C50.3941 2.76123 50.9383 2.21698 51.6266 1.8008C52.331 1.38461 53.1233 1.08048 54.0037 0.888394C54.9001 0.696309 55.8365 0.600266 56.8129 0.600266C57.8054 0.600266 58.7338 0.704312 59.5982 0.912404C60.4786 1.10449 61.2549 1.40862 61.9272 1.82481C62.5995 2.24099 63.1277 2.76923 63.5119 3.40951C63.8961 4.0498 64.0962 4.81013 64.1122 5.69052V5.97865H59.142V5.88261C59.142 5.59448 59.0699 5.32236 58.9259 5.06625C58.7818 4.81013 58.5497 4.60204 58.2296 4.44197C57.9254 4.2819 57.5173 4.20186 57.005 4.20186C56.5248 4.20186 56.1166 4.24989 55.7805 4.34593C55.4603 4.44197 55.2202 4.57803 55.0602 4.75411C54.9001 4.91418 54.8201 5.09026 54.8201 5.28234C54.8201 5.58648 54.9561 5.83459 55.2282 6.02667C55.5004 6.21876 55.8685 6.37883 56.3327 6.50689C56.7969 6.63494 57.3172 6.755 57.8934 6.86705C58.4697 6.9791 59.0699 7.10715 59.6942 7.25122C60.3185 7.37927 60.9188 7.55535 61.495 7.77945C62.0713 8.00355 62.5915 8.29968 63.0557 8.66785C63.5199 9.02 63.8881 9.4602 64.1602 9.98843C64.4323 10.5167 64.5684 11.165 64.5684 11.9333C64.5684 13.2939 64.2482 14.3984 63.608 15.2468C62.9837 16.0951 62.1193 16.7194 61.0148 17.1196C59.9263 17.5038 58.6858 17.6959 57.2932 17.6959Z" fill="black"/>
<path d="M73.4206 17.6959C71.98 17.6959 70.7234 17.4557 69.6509 16.9755C68.5945 16.4793 67.7701 15.743 67.1779 14.7666C66.5856 13.7741 66.2895 12.5416 66.2895 11.0689C66.2895 9.58025 66.5856 8.3477 67.1779 7.37127C67.7701 6.37883 68.5945 5.6425 69.6509 5.16229C70.7234 4.66607 71.98 4.41796 73.4206 4.41796C74.381 4.41796 75.2854 4.52201 76.1338 4.7301C76.9822 4.93819 77.7265 5.25833 78.3668 5.69052C79.0071 6.12272 79.5033 6.68296 79.8555 7.37127C80.2236 8.05958 80.4077 8.88394 80.4077 9.84437H75.7737C75.7737 9.34815 75.6776 8.93997 75.4855 8.61982C75.3095 8.29968 75.0453 8.06758 74.6932 7.92352C74.341 7.76344 73.9168 7.68341 73.4206 7.68341C72.8604 7.68341 72.4042 7.79546 72.052 8.01956C71.7159 8.22765 71.4678 8.53979 71.3077 8.95597C71.1476 9.35615 71.0676 9.83636 71.0676 10.3966V11.7652C71.0676 12.3255 71.1476 12.8057 71.3077 13.2059C71.4838 13.606 71.7479 13.9182 72.1 14.1423C72.4682 14.3504 72.9404 14.4544 73.5167 14.4544C74.0449 14.4544 74.4851 14.3824 74.8372 14.2383C75.2054 14.0782 75.4855 13.8381 75.6776 13.518C75.8697 13.1818 75.9657 12.7577 75.9657 12.2454H80.4077C80.4077 13.2059 80.2236 14.0382 79.8555 14.7425C79.5033 15.4308 79.0071 15.9911 78.3668 16.4233C77.7265 16.8555 76.9822 17.1756 76.1338 17.3837C75.2854 17.5918 74.381 17.6959 73.4206 17.6959Z" fill="black"/>
<path d="M86.6263 17.6959C85.97 17.6959 85.3697 17.6318 84.8255 17.5038C84.2812 17.3917 83.809 17.1996 83.4089 16.9275C83.0087 16.6394 82.6965 16.2712 82.4724 15.823C82.2644 15.3588 82.1603 14.7986 82.1603 14.1423C82.1603 13.1979 82.3524 12.4295 82.7366 11.8373C83.1367 11.245 83.713 10.7888 84.4653 10.4686C85.2177 10.1485 86.1301 9.93241 87.2025 9.82036C88.291 9.6923 89.5316 9.62827 90.9242 9.62827V9.00399C90.9242 8.65184 90.8362 8.37171 90.6601 8.16362C90.5 7.93952 90.2839 7.77145 90.0118 7.6594C89.7397 7.54735 89.4275 7.49132 89.0754 7.49132C88.8033 7.49132 88.5231 7.52334 88.235 7.58737C87.9469 7.65139 87.7068 7.76344 87.5147 7.92352C87.3386 8.08359 87.2506 8.30769 87.2506 8.59581V8.69186H82.5445C82.5285 8.62783 82.5205 8.5718 82.5205 8.52378C82.5205 8.47576 82.5205 8.41974 82.5205 8.35571C82.5205 7.57136 82.7686 6.89106 83.2648 6.3148C83.777 5.72254 84.5214 5.26634 85.4978 4.94619C86.4902 4.61004 87.7068 4.44197 89.1474 4.44197C90.3159 4.44197 91.3964 4.57003 92.3888 4.82614C93.3813 5.08225 94.1816 5.51445 94.7899 6.12272C95.3982 6.71498 95.7023 7.53134 95.7023 8.5718V13.518C95.7023 13.7741 95.7663 13.9982 95.8944 14.1903C96.0225 14.3664 96.2145 14.4544 96.4707 14.4544H97.335V17.2156C97.143 17.3277 96.8228 17.4317 96.3746 17.5278C95.9424 17.6398 95.4302 17.6959 94.8379 17.6959C94.1976 17.6959 93.6374 17.6318 93.1572 17.5038C92.677 17.3757 92.2848 17.1916 91.9807 16.9515C91.6925 16.7114 91.4925 16.4313 91.3804 16.1111H91.2123C90.8762 16.4153 90.484 16.6874 90.0358 16.9275C89.6036 17.1676 89.1074 17.3517 88.5471 17.4798C87.9869 17.6238 87.3466 17.6959 86.6263 17.6959ZM88.5712 14.7185C88.8753 14.7185 89.1634 14.6785 89.4355 14.5985C89.7237 14.5024 89.9798 14.3824 90.2039 14.2383C90.428 14.0782 90.6041 13.8942 90.7321 13.6861C90.8602 13.462 90.9242 13.2219 90.9242 12.9658V11.8853C89.9798 11.8853 89.2114 11.9573 88.6192 12.1014C88.0429 12.2454 87.6187 12.4375 87.3466 12.6776C87.0745 12.9177 86.9384 13.1979 86.9384 13.518C86.9384 13.8381 87.0185 14.0863 87.1785 14.2623C87.3386 14.4384 87.5387 14.5585 87.7788 14.6225C88.0349 14.6865 88.299 14.7185 88.5712 14.7185Z" fill="black"/>
<path d="M98.8955 17.4077V0H103.674V17.4077H98.8955Z" fill="black"/>
<path d="M109.924 17.4077L105.122 4.7301H110.261L111.485 8.83592C111.565 9.06002 111.661 9.39617 111.773 9.84437C111.901 10.2926 112.037 10.7648 112.181 11.261C112.342 11.7572 112.478 12.2134 112.59 12.6296H112.758C112.87 12.2454 112.998 11.8132 113.142 11.333C113.286 10.8368 113.422 10.3646 113.55 9.9164C113.678 9.4682 113.782 9.10804 113.862 8.83592L115.087 4.7301H119.793L114.943 17.4077H109.924Z" fill="black"/>
<path d="M127.796 17.6959C126.356 17.6959 125.099 17.4557 124.027 16.9755C122.97 16.4793 122.146 15.743 121.554 14.7666C120.961 13.7741 120.665 12.5416 120.665 11.0689C120.665 9.58025 120.961 8.3477 121.554 7.37127C122.146 6.39484 122.97 5.66651 124.027 5.1863C125.099 4.69008 126.356 4.44197 127.796 4.44197C129.237 4.44197 130.493 4.69008 131.566 5.1863C132.638 5.66651 133.471 6.39484 134.063 7.37127C134.655 8.3477 134.951 9.58025 134.951 11.0689C134.951 12.5416 134.655 13.7741 134.063 14.7666C133.471 15.743 132.638 16.4793 131.566 16.9755C130.493 17.4557 129.237 17.6959 127.796 17.6959ZM127.796 14.4544C128.357 14.4544 128.813 14.3504 129.165 14.1423C129.517 13.9182 129.773 13.606 129.933 13.2059C130.093 12.8057 130.173 12.3255 130.173 11.7652V10.3966C130.173 9.83636 130.093 9.35615 129.933 8.95597C129.773 8.53979 129.517 8.22765 129.165 8.01956C128.813 7.79546 128.357 7.68341 127.796 7.68341C127.236 7.68341 126.78 7.79546 126.428 8.01956C126.092 8.22765 125.843 8.53979 125.683 8.95597C125.523 9.35615 125.443 9.83636 125.443 10.3966V11.7652C125.443 12.3255 125.523 12.8057 125.683 13.2059C125.843 13.606 126.092 13.9182 126.428 14.1423C126.78 14.3504 127.236 14.4544 127.796 14.4544Z" fill="black"/>
<path d="M137.256 17.4077V4.7301H141.17L141.482 6.65095H141.65C141.986 6.15473 142.379 5.74655 142.827 5.42641C143.275 5.09026 143.771 4.84215 144.315 4.68208C144.86 4.52201 145.42 4.44197 145.996 4.44197C147.005 4.44197 147.829 4.63406 148.469 5.01823C149.126 5.38639 149.614 5.92263 149.934 6.62694C150.254 7.33125 150.414 8.18763 150.414 9.19608V17.4077H145.636V9.77234C145.636 9.50022 145.596 9.26011 145.516 9.05202C145.452 8.82792 145.356 8.63583 145.228 8.47576C145.1 8.31569 144.932 8.19564 144.724 8.1156C144.532 8.01956 144.299 7.97154 144.027 7.97154C143.627 7.97154 143.275 8.06758 142.971 8.25966C142.683 8.43574 142.451 8.67585 142.275 8.97998C142.114 9.26811 142.034 9.59626 142.034 9.96442V17.4077H137.256Z" fill="black"/>
<path d="M153.271 3.24144V0H158.049V3.24144H153.271ZM153.271 17.4077V4.7301H158.049V17.4077H153.271Z" fill="black"/>
<path d="M48.2412 44.0859L54.7 27.6146H58.1336L64.6164 44.0859H61.7352L60.2705 40.2683H52.4671L51.0024 44.0859H48.2412ZM53.3314 37.9872H59.3821L57.5333 33.1611C57.4853 33.017 57.4132 32.8169 57.3172 32.5608C57.2212 32.3047 57.1171 32.0246 57.0051 31.7205C56.909 31.4163 56.805 31.1122 56.6929 30.8081C56.5969 30.4879 56.5088 30.1998 56.4288 29.9437H56.2847C56.1887 30.2478 56.0687 30.608 55.9246 31.0241C55.7805 31.4403 55.6365 31.8405 55.4924 32.2247C55.3643 32.6089 55.2523 32.921 55.1562 33.1611L53.3314 37.9872Z" fill="black"/>
<path d="M66.4007 44.0859V31.4563H68.4657L68.6817 33.4972H68.8258C68.9699 33.0971 69.154 32.7209 69.3781 32.3687C69.6182 32.0166 69.9223 31.7285 70.2905 31.5044C70.6746 31.2803 71.1388 31.1682 71.6831 31.1682C71.9392 31.1682 72.1633 31.1922 72.3554 31.2402C72.5635 31.2883 72.7235 31.3283 72.8356 31.3603V33.7133H71.9952C71.483 33.7133 71.0268 33.7934 70.6266 33.9535C70.2424 34.1135 69.9143 34.3536 69.6422 34.6738C69.3861 34.9779 69.194 35.3541 69.0659 35.8023C68.9539 36.2505 68.8978 36.7547 68.8978 37.3149V44.0859H66.4007Z" fill="black"/>
<path d="M79.485 44.3741C78.2205 44.3741 77.164 44.142 76.3156 43.6778C75.4673 43.1976 74.827 42.4692 74.3948 41.4928C73.9786 40.5164 73.7705 39.2758 73.7705 37.7711C73.7705 36.2665 73.9866 35.0339 74.4188 34.0735C74.851 33.0971 75.4913 32.3687 76.3396 31.8885C77.204 31.4083 78.2605 31.1682 79.5091 31.1682C80.3734 31.1682 81.1258 31.2803 81.7661 31.5044C82.4063 31.7125 82.9506 32.0326 83.3988 32.4648C83.847 32.881 84.1751 33.4012 84.3832 34.0255C84.6073 34.6498 84.7194 35.3621 84.7194 36.1624H82.1982C82.1982 35.4901 82.1022 34.9379 81.9101 34.5057C81.718 34.0735 81.4219 33.7534 81.0217 33.5453C80.6215 33.3212 80.1013 33.2091 79.461 33.2091C78.7887 33.2091 78.2205 33.3692 77.7563 33.6893C77.2921 33.9935 76.9399 34.4657 76.6998 35.106C76.4597 35.7302 76.3396 36.5546 76.3396 37.5791V37.9872C76.3396 38.9637 76.4517 39.78 76.6758 40.4363C76.9159 41.0766 77.2681 41.5568 77.7323 41.877C78.2125 42.1811 78.8207 42.3332 79.5571 42.3332C80.1974 42.3332 80.7096 42.2211 81.0938 41.997C81.4939 41.7569 81.7901 41.4208 81.9822 40.9886C82.1902 40.5404 82.2943 40.0041 82.2943 39.3799H84.7194C84.7194 40.1322 84.6073 40.8125 84.3832 41.4208C84.1751 42.029 83.847 42.5573 83.3988 43.0055C82.9666 43.4377 82.4223 43.7738 81.7661 44.0139C81.1098 44.254 80.3494 44.3741 79.485 44.3741Z" fill="black"/>
<path d="M87.2459 44.0859V26.7262H89.743V32.969H89.9111C90.2152 32.5848 90.5594 32.2647 90.9436 32.0086C91.3277 31.7365 91.7599 31.5284 92.2401 31.3843C92.7203 31.2402 93.2486 31.1682 93.8248 31.1682C94.6252 31.1682 95.3295 31.3123 95.9378 31.6004C96.5461 31.8725 97.0183 32.3207 97.3544 32.945C97.7066 33.5693 97.8826 34.4097 97.8826 35.4661V44.0859H95.3855V35.8503C95.3855 35.3701 95.3215 34.9699 95.1934 34.6498C95.0814 34.3296 94.9133 34.0735 94.6892 33.8814C94.4651 33.6893 94.201 33.5533 93.8969 33.4732C93.5927 33.3932 93.2566 33.3532 92.8884 33.3532C92.3122 33.3532 91.7839 33.4892 91.3037 33.7614C90.8395 34.0335 90.4634 34.4177 90.1752 34.9139C89.8871 35.4101 89.743 36.0024 89.743 36.6907V44.0859H87.2459Z" fill="black"/>
<path d="M101.01 29.2714V26.7262H103.507V29.2714H101.01ZM101.01 44.0859V31.4563H103.507V44.0859H101.01Z" fill="black"/>
<path d="M109.877 44.3741C109.156 44.3741 108.588 44.238 108.172 43.9659C107.772 43.6778 107.483 43.3176 107.307 42.8854C107.147 42.4372 107.067 41.965 107.067 41.4688V33.5213H105.483V31.4563H107.115L107.572 27.9268H109.564V31.4563H111.845V33.5213H109.564V41.1807C109.564 41.5488 109.644 41.8289 109.804 42.021C109.965 42.2131 110.229 42.3092 110.597 42.3092H111.845V43.9899C111.685 44.0539 111.485 44.11 111.245 44.158C111.021 44.222 110.789 44.27 110.549 44.302C110.309 44.3501 110.085 44.3741 109.877 44.3741Z" fill="black"/>
<path d="M119.281 44.3741C117.985 44.3741 116.896 44.142 116.016 43.6778C115.151 43.1976 114.495 42.4692 114.047 41.4928C113.599 40.5164 113.375 39.2758 113.375 37.7711C113.375 36.2505 113.599 35.0099 114.047 34.0495C114.495 33.0731 115.159 32.3527 116.04 31.8885C116.92 31.4083 118.017 31.1682 119.329 31.1682C120.53 31.1682 121.53 31.4003 122.331 31.8645C123.147 32.3127 123.763 33.001 124.179 33.9294C124.596 34.8579 124.804 36.0264 124.804 37.435V38.3954H115.944C115.976 39.2918 116.112 40.0442 116.352 40.6524C116.592 41.2447 116.952 41.6849 117.432 41.973C117.929 42.2451 118.553 42.3812 119.305 42.3812C119.769 42.3812 120.186 42.3252 120.554 42.2131C120.922 42.0851 121.234 41.909 121.49 41.6849C121.746 41.4448 121.946 41.1646 122.09 40.8445C122.235 40.5084 122.307 40.1322 122.307 39.716H124.756C124.756 40.4683 124.628 41.1326 124.371 41.7089C124.115 42.2851 123.739 42.7734 123.243 43.1735C122.763 43.5577 122.186 43.8538 121.514 44.0619C120.842 44.27 120.098 44.3741 119.281 44.3741ZM115.992 36.5706H122.186C122.186 35.9463 122.114 35.4261 121.97 35.0099C121.842 34.5777 121.65 34.2256 121.394 33.9535C121.138 33.6813 120.834 33.4892 120.482 33.3772C120.13 33.2491 119.729 33.1851 119.281 33.1851C118.609 33.1851 118.033 33.3052 117.552 33.5453C117.088 33.7854 116.728 34.1615 116.472 34.6738C116.216 35.17 116.056 35.8023 115.992 36.5706Z" fill="black"/>
<path d="M132.36 44.3741C131.096 44.3741 130.039 44.142 129.191 43.6778C128.342 43.1976 127.702 42.4692 127.27 41.4928C126.854 40.5164 126.646 39.2758 126.646 37.7711C126.646 36.2665 126.862 35.0339 127.294 34.0735C127.726 33.0971 128.366 32.3687 129.215 31.8885C130.079 31.4083 131.136 31.1682 132.384 31.1682C133.248 31.1682 134.001 31.2803 134.641 31.5044C135.281 31.7125 135.826 32.0326 136.274 32.4648C136.722 32.881 137.05 33.4012 137.258 34.0255C137.482 34.6498 137.594 35.3621 137.594 36.1624H135.073C135.073 35.4901 134.977 34.9379 134.785 34.5057C134.593 34.0735 134.297 33.7534 133.897 33.5453C133.497 33.3212 132.976 33.2091 132.336 33.2091C131.664 33.2091 131.095 33.3692 130.631 33.6893C130.167 33.9935 129.815 34.4657 129.575 35.106C129.335 35.7302 129.215 36.5546 129.215 37.5791V37.9872C129.215 38.9637 129.327 39.78 129.551 40.4363C129.791 41.0766 130.143 41.5568 130.607 41.877C131.088 42.1811 131.696 42.3332 132.432 42.3332C133.072 42.3332 133.585 42.2211 133.969 41.997C134.369 41.7569 134.665 41.4208 134.857 40.9886C135.065 40.5404 135.169 40.0041 135.169 39.3799H137.594C137.594 40.1322 137.482 40.8125 137.258 41.4208C137.05 42.029 136.722 42.5573 136.274 43.0055C135.842 43.4377 135.297 43.7738 134.641 44.0139C133.985 44.254 133.224 44.3741 132.36 44.3741Z" fill="black"/>
<path d="M143.266 44.3741C142.546 44.3741 141.978 44.238 141.562 43.9659C141.161 43.6778 140.873 43.3176 140.697 42.8854C140.537 42.4372 140.457 41.965 140.457 41.4688V33.5213H138.872V31.4563H140.505L140.961 27.9268H142.954V31.4563H145.235V33.5213H142.954V41.1807C142.954 41.5488 143.034 41.8289 143.194 42.021C143.354 42.2131 143.618 42.3092 143.987 42.3092H145.235V43.9899C145.075 44.0539 144.875 44.11 144.635 44.158C144.411 44.222 144.179 44.27 143.939 44.302C143.699 44.3501 143.474 44.3741 143.266 44.3741Z" fill="black"/>
<path d="M151.398 44.3741C150.182 44.3741 149.197 44.0539 148.445 43.4136C147.693 42.7574 147.317 41.6449 147.317 40.0762V31.4563H149.814V39.692C149.814 40.1722 149.87 40.5724 149.982 40.8925C150.11 41.2127 150.286 41.4688 150.51 41.6609C150.734 41.853 150.998 41.989 151.302 42.0691C151.607 42.1491 151.943 42.1891 152.311 42.1891C152.887 42.1891 153.407 42.053 153.872 41.7809C154.352 41.4928 154.736 41.1006 155.024 40.6044C155.312 40.0922 155.456 39.5079 155.456 38.8516V31.4563H157.953V44.0859H155.912L155.696 42.2851H155.528C155.224 42.7494 154.864 43.1335 154.448 43.4377C154.032 43.7418 153.567 43.9739 153.055 44.134C152.559 44.294 152.007 44.3741 151.398 44.3741Z" fill="black"/>
<path d="M161.177 44.0859V31.4563H163.242L163.458 33.4972H163.602C163.746 33.0971 163.93 32.7209 164.154 32.3687C164.395 32.0166 164.699 31.7285 165.067 31.5044C165.451 31.2803 165.915 31.1682 166.46 31.1682C166.716 31.1682 166.94 31.1922 167.132 31.2402C167.34 31.2883 167.5 31.3283 167.612 31.3603V33.7133H166.772C166.259 33.7133 165.803 33.7934 165.403 33.9535C165.019 34.1135 164.691 34.3536 164.419 34.6738C164.162 34.9779 163.97 35.3541 163.842 35.8023C163.73 36.2505 163.674 36.7547 163.674 37.3149V44.0859H161.177Z" fill="black"/>
<path d="M174.478 44.3741C173.181 44.3741 172.092 44.142 171.212 43.6778C170.348 43.1976 169.691 42.4692 169.243 41.4928C168.795 40.5164 168.571 39.2758 168.571 37.7711C168.571 36.2505 168.795 35.0099 169.243 34.0495C169.691 33.0731 170.356 32.3527 171.236 31.8885C172.117 31.4083 173.213 31.1682 174.526 31.1682C175.726 31.1682 176.727 31.4003 177.527 31.8645C178.343 32.3127 178.96 33.001 179.376 33.9294C179.792 34.8579 180 36.0264 180 37.435V38.3954H171.14C171.172 39.2918 171.308 40.0442 171.548 40.6524C171.788 41.2447 172.149 41.6849 172.629 41.973C173.125 42.2451 173.749 42.3812 174.502 42.3812C174.966 42.3812 175.382 42.3252 175.75 42.2131C176.118 42.0851 176.43 41.909 176.687 41.6849C176.943 41.4448 177.143 41.1646 177.287 40.8445C177.431 40.5084 177.503 40.1322 177.503 39.716H179.952C179.952 40.4683 179.824 41.1326 179.568 41.7089C179.312 42.2851 178.936 42.7734 178.439 43.1735C177.959 43.5577 177.383 43.8538 176.711 44.0619C176.038 44.27 175.294 44.3741 174.478 44.3741ZM171.188 36.5706H177.383C177.383 35.9463 177.311 35.4261 177.167 35.0099C177.039 34.5777 176.847 34.2256 176.59 33.9535C176.334 33.6813 176.03 33.4892 175.678 33.3772C175.326 33.2491 174.926 33.1851 174.478 33.1851C173.805 33.1851 173.229 33.3052 172.749 33.5453C172.285 33.7854 171.924 34.1615 171.668 34.6738C171.412 35.17 171.252 35.8023 171.188 36.5706Z" fill="black"/>
</svg>
