<svg width="42" height="40" viewBox="0 0 42 40" fill="none" xmlns="http://www.w3.org/2000/svg">
<path d="M28.958 20.521C28.958 20.021 28.8955 19.646 28.833 19.2397H21.458V21.896H25.833C25.6768 23.0522 24.5205 25.2397 21.458 25.2397C18.8018 25.2397 16.6455 23.0522 16.6455 20.3335C16.6455 15.9897 21.7705 13.9897 24.5205 16.646L26.6455 14.6147C25.3018 13.3647 23.5205 12.5835 21.458 12.5835C17.1455 12.5835 13.708 16.0522 13.708 20.3335C13.708 24.646 17.1455 28.0835 21.458 28.0835C25.9268 28.0835 28.958 24.9585 28.958 20.521Z" fill="white"/>
<rect opacity="0.1" width="42" height="40" rx="20" fill="#2387C0"/>
</svg>
