<svg width="40" height="40" viewBox="0 0 40 40" fill="none" xmlns="http://www.w3.org/2000/svg">
<rect opacity="0.1" width="40" height="40" rx="20" fill="#2387C0"/>
<path d="M20.333 16.7397C18.333 16.7397 16.7393 18.3647 16.7393 20.3335C16.7393 22.3335 18.333 23.9272 20.333 23.9272C22.3018 23.9272 23.9268 22.3335 23.9268 20.3335C23.9268 18.3647 22.3018 16.7397 20.333 16.7397ZM20.333 22.6772C19.0518 22.6772 17.9893 21.646 17.9893 20.3335C17.9893 19.0522 19.0205 18.021 20.333 18.021C21.6143 18.021 22.6455 19.0522 22.6455 20.3335C22.6455 21.646 21.6143 22.6772 20.333 22.6772ZM24.8955 16.6147C24.8955 16.146 24.5205 15.771 24.0518 15.771C23.583 15.771 23.208 16.146 23.208 16.6147C23.208 17.0835 23.583 17.4585 24.0518 17.4585C24.5205 17.4585 24.8955 17.0835 24.8955 16.6147ZM27.2705 17.4585C27.208 16.3335 26.958 15.3335 26.1455 14.521C25.333 13.7085 24.333 13.4585 23.208 13.396C22.0518 13.3335 18.583 13.3335 17.4268 13.396C16.3018 13.4585 15.333 13.7085 14.4893 14.521C13.6768 15.3335 13.4268 16.3335 13.3643 17.4585C13.3018 18.6147 13.3018 22.0835 13.3643 23.2397C13.4268 24.3647 13.6768 25.3335 14.4893 26.1772C15.333 26.9897 16.3018 27.2397 17.4268 27.3022C18.583 27.3647 22.0518 27.3647 23.208 27.3022C24.333 27.2397 25.333 26.9897 26.1455 26.1772C26.958 25.3335 27.208 24.3647 27.2705 23.2397C27.333 22.0835 27.333 18.6147 27.2705 17.4585ZM25.7705 24.4585C25.5518 25.0835 25.0518 25.5522 24.458 25.8022C23.5205 26.1772 21.333 26.0835 20.333 26.0835C19.3018 26.0835 17.1143 26.1772 16.208 25.8022C15.583 25.5522 15.1143 25.0835 14.8643 24.4585C14.4893 23.5522 14.583 21.3647 14.583 20.3335C14.583 19.3335 14.4893 17.146 14.8643 16.2085C15.1143 15.6147 15.583 15.146 16.208 14.896C17.1143 14.521 19.3018 14.6147 20.333 14.6147C21.333 14.6147 23.5205 14.521 24.458 14.896C25.0518 15.1147 25.5205 15.6147 25.7705 16.2085C26.1455 17.146 26.0518 19.3335 26.0518 20.3335C26.0518 21.3647 26.1455 23.5522 25.7705 24.4585Z" fill="white"/>
</svg>
