<svg width="40" height="40" viewBox="0 0 40 40" fill="none" xmlns="http://www.w3.org/2000/svg">
<rect opacity="0.1" width="40" height="40" rx="20" fill="#2387C0"/>
<path d="M26.333 13.3335H14.3018C13.7705 13.3335 13.333 13.8022 13.333 14.3647V26.3335C13.333 26.896 13.7705 27.3335 14.3018 27.3335H26.333C26.8643 27.3335 27.333 26.896 27.333 26.3335V14.3647C27.333 13.8022 26.8643 13.3335 26.333 13.3335ZM17.5518 25.3335H15.4893V18.6772H17.5518V25.3335ZM16.5205 17.7397C15.833 17.7397 15.3018 17.2085 15.3018 16.5522C15.3018 15.896 15.833 15.3335 16.5205 15.3335C17.1768 15.3335 17.708 15.896 17.708 16.5522C17.708 17.2085 17.1768 17.7397 16.5205 17.7397ZM25.333 25.3335H23.2393V22.0835C23.2393 21.3335 23.2393 20.3335 22.1768 20.3335C21.083 20.3335 20.9268 21.1772 20.9268 22.0522V25.3335H18.8643V18.6772H20.833V19.5835H20.8643C21.1455 19.0522 21.833 18.4897 22.833 18.4897C24.9268 18.4897 25.333 19.896 25.333 21.6772V25.3335Z" fill="white"/>
</svg>
