<svg width="93" height="92" viewBox="0 0 93 92" fill="none" xmlns="http://www.w3.org/2000/svg">
<g filter="url(#filter0_d_1_161)">
<circle cx="46.8167" cy="36" r="31" fill="white"/>
</g>
<path d="M40.431 31.457C41.4248 30.3796 42.9286 29.8335 44.8999 29.8335H45.6082V31.8303L45.0387 31.9443C44.0683 32.1384 43.3933 32.5202 43.032 33.0805C42.8435 33.3823 42.7366 33.7279 42.7218 34.0835H44.8999C45.0877 34.0835 45.2679 34.1581 45.4007 34.291C45.5336 34.4238 45.6082 34.604 45.6082 34.7918V39.7502C45.6082 40.5315 44.9728 41.1668 44.1915 41.1668H39.9415C39.7537 41.1668 39.5735 41.0922 39.4407 40.9594C39.3078 40.8265 39.2332 40.6464 39.2332 40.4585V36.9168L39.2353 34.8492C39.229 34.7706 39.0944 32.9077 40.431 31.457ZM51.9832 41.1668H47.7332C47.5454 41.1668 47.3652 41.0922 47.2323 40.9594C47.0995 40.8265 47.0249 40.6464 47.0249 40.4585V36.9168L47.027 34.8492C47.0206 34.7706 46.886 32.9077 48.2227 31.457C49.2165 30.3796 50.7203 29.8335 52.6915 29.8335H53.3999V31.8303L52.8304 31.9443C51.86 32.1384 51.1849 32.5202 50.8237 33.0805C50.6352 33.3823 50.5283 33.7279 50.5134 34.0835H52.6915C52.8794 34.0835 53.0596 34.1581 53.1924 34.291C53.3253 34.4238 53.3999 34.604 53.3999 34.7918V39.7502C53.3999 40.5315 52.7645 41.1668 51.9832 41.1668Z" fill="#0A72AD"/>
<defs>
<filter id="filter0_d_1_161" x="0.81665" y="0" width="92" height="92" filterUnits="userSpaceOnUse" color-interpolation-filters="sRGB">
<feFlood flood-opacity="0" result="BackgroundImageFix"/>
<feColorMatrix in="SourceAlpha" type="matrix" values="0 0 0 0 0 0 0 0 0 0 0 0 0 0 0 0 0 0 127 0" result="hardAlpha"/>
<feOffset dy="10"/>
<feGaussianBlur stdDeviation="7.5"/>
<feColorMatrix type="matrix" values="0 0 0 0 0.137255 0 0 0 0 0.529412 0 0 0 0 0.752941 0 0 0 0.15 0"/>
<feBlend mode="normal" in2="BackgroundImageFix" result="effect1_dropShadow_1_161"/>
<feBlend mode="normal" in="SourceGraphic" in2="effect1_dropShadow_1_161" result="shape"/>
</filter>
</defs>
</svg>
