<svg width="42" height="40" viewBox="0 0 42 40" fill="none" xmlns="http://www.w3.org/2000/svg">
<rect opacity="0.1" width="42" height="40" rx="20" fill="#2387C0"/>
<path d="M27.6768 17.0835C28.3018 16.6147 28.8643 16.0522 29.3018 15.396C28.7393 15.646 28.083 15.8335 27.4268 15.896C28.1143 15.4897 28.6143 14.8647 28.8643 14.0835C28.2393 14.4585 27.5205 14.7397 26.8018 14.896C26.1768 14.2397 25.333 13.8647 24.3955 13.8647C22.583 13.8647 21.1143 15.3335 21.1143 17.146C21.1143 17.396 21.1455 17.646 21.208 17.896C18.4893 17.7397 16.0518 16.4272 14.4268 14.4585C14.1455 14.9272 13.9893 15.4897 13.9893 16.1147C13.9893 17.2397 14.5518 18.2397 15.458 18.8335C14.9268 18.8022 14.3955 18.6772 13.958 18.4272V18.4585C13.958 20.0522 15.083 21.3647 16.583 21.6772C16.333 21.7397 16.0205 21.8022 15.7393 21.8022C15.5205 21.8022 15.333 21.771 15.1143 21.7397C15.5205 23.0522 16.7393 23.9897 18.1768 24.021C17.0518 24.896 15.6455 25.4272 14.1143 25.4272C13.833 25.4272 13.583 25.396 13.333 25.3647C14.7705 26.3022 16.4893 26.8335 18.3643 26.8335C24.3955 26.8335 27.6768 21.8647 27.6768 17.521C27.6768 17.3647 27.6768 17.2397 27.6768 17.0835Z" fill="white"/>
</svg>
