<svg width="95" height="94" viewBox="0 0 95 94" fill="none" xmlns="http://www.w3.org/2000/svg">
<circle cx="47.6667" cy="47" r="47" fill="#2387C0" fill-opacity="0.3"/>
<circle cx="47.6667" cy="47" r="37" fill="#2387C0"/>
<path d="M59.4196 32.2813H51.0182C50.757 32.2811 50.5063 32.3843 50.321 32.5684L33.5251 49.3643C33.1573 49.7338 32.9508 50.234 32.9508 50.7554C32.9508 51.2768 33.1573 51.7769 33.5251 52.1465L41.5231 60.1445C41.8927 60.5123 42.3928 60.7188 42.9142 60.7188C43.4356 60.7188 43.9358 60.5123 44.3053 60.1445L61.0944 43.3555C61.2785 43.1701 61.3817 42.9194 61.3815 42.6582V34.25C61.3828 33.9917 61.3329 33.7357 61.2349 33.4967C61.1368 33.2577 60.9925 33.0405 60.8101 32.8575C60.6278 32.6745 60.411 32.5294 60.1724 32.4305C59.9338 32.3316 59.6779 32.2809 59.4196 32.2813V32.2813Z" stroke="white" stroke-width="3" stroke-linecap="round" stroke-linejoin="round"/>
<path d="M55.9167 39.9375C55.484 39.9375 55.0611 39.8092 54.7013 39.5688C54.3416 39.3285 54.0612 38.9868 53.8957 38.5871C53.7301 38.1874 53.6868 37.7476 53.7712 37.3232C53.8556 36.8989 54.0639 36.5091 54.3699 36.2032C54.6758 35.8973 55.0656 35.6889 55.4899 35.6045C55.9142 35.5201 56.3541 35.5634 56.7538 35.729C57.1535 35.8946 57.4951 36.175 57.7355 36.5347C57.9759 36.8944 58.1042 37.3174 58.1042 37.75C58.1042 38.3302 57.8737 38.8866 57.4635 39.2968C57.0532 39.707 56.4968 39.9375 55.9167 39.9375Z" fill="white"/>
</svg>
