<svg width="95" height="94" viewBox="0 0 95 94" fill="none" xmlns="http://www.w3.org/2000/svg">
<circle cx="47.3333" cy="47" r="47" fill="#2387C0" fill-opacity="0.3"/>
<circle cx="47.3333" cy="47" r="37" fill="#2387C0"/>
<path d="M67.9386 42.7031H56.9386C56.7495 42.7031 56.5948 42.8578 56.5948 43.0469V45.1094C56.5948 45.2984 56.7495 45.4531 56.9386 45.4531H67.9386C68.1276 45.4531 68.2823 45.2984 68.2823 45.1094V43.0469C68.2823 42.8578 68.1276 42.7031 67.9386 42.7031ZM62.1808 48.5469H56.9386C56.7495 48.5469 56.5948 48.7016 56.5948 48.8906V50.9531C56.5948 51.1422 56.7495 51.2969 56.9386 51.2969H62.1808C62.3698 51.2969 62.5245 51.1422 62.5245 50.9531V48.8906C62.5245 48.7016 62.3698 48.5469 62.1808 48.5469ZM47.8421 38.8574H45.9816C45.7151 38.8574 45.5003 39.0723 45.5003 39.3387V49.9949C45.5003 50.1496 45.5734 50.2914 45.698 50.3816L52.096 55.048C52.3109 55.2027 52.6116 55.1598 52.7663 54.9449L53.8706 53.4367V53.4324C54.0253 53.2176 53.978 52.9168 53.7632 52.7621L48.3191 48.8262V39.3387C48.3234 39.0723 48.1042 38.8574 47.8421 38.8574Z" fill="white"/>
<path d="M61.9146 53.9566H59.431C59.1904 53.9566 58.9626 54.0812 58.8337 54.2874C58.288 55.1511 57.6521 55.9503 56.9216 56.6808C55.6626 57.9398 54.1974 58.9281 52.5689 59.6156C50.8802 60.3288 49.0884 60.6898 47.2408 60.6898C45.3888 60.6898 43.597 60.3288 41.9126 59.6156C40.2841 58.9281 38.8189 57.9398 37.5599 56.6808C36.3009 55.4218 35.3126 53.9566 34.6251 52.3281C33.9119 50.6437 33.5509 48.8519 33.5509 46.9999C33.5509 45.148 33.9119 43.3605 34.6251 41.6718C35.3126 40.0433 36.3009 38.5781 37.5599 37.3191C38.8189 36.0601 40.2841 35.0718 41.9126 34.3843C43.597 33.671 45.3931 33.3101 47.2408 33.3101C49.0927 33.3101 50.8845 33.671 52.5689 34.3843C54.1974 35.0718 55.6626 36.0601 56.9216 37.3191C57.6521 38.0496 58.288 38.8488 58.8337 39.7124C58.9626 39.9187 59.1904 40.0433 59.431 40.0433H61.9146C62.2111 40.0433 62.4001 39.7339 62.2669 39.4718C59.4654 33.8988 53.7849 30.2765 47.4427 30.2035C38.1572 30.0874 30.4443 37.6886 30.4271 46.9656C30.4099 56.2597 37.9423 63.8007 47.2365 63.8007C53.6603 63.8007 59.4353 60.1656 62.2669 54.5281C62.4001 54.266 62.2068 53.9566 61.9146 53.9566Z" fill="white"/>
</svg>
