<svg width="57" height="57" viewBox="0 0 57 57" fill="none" xmlns="http://www.w3.org/2000/svg">
<path d="M21.1956 29.6812L25.4297 33.914L25.4297 33.914C25.6514 34.1357 25.776 34.4364 25.776 34.75C25.776 35.0635 25.6514 35.3642 25.4297 35.586C25.208 35.8077 24.9073 35.9322 24.5938 35.9322C24.2802 35.9322 23.9795 35.8077 23.7578 35.586L17.5081 29.3363C17.3981 29.2266 17.3109 29.0962 17.2513 28.9527C17.1918 28.8092 17.1611 28.6554 17.1611 28.5C17.1611 28.3446 17.1918 28.1908 17.2513 28.0473C17.3109 27.9037 17.3981 27.7734 17.5081 27.6637L23.7578 21.414C23.9795 21.1923 24.2802 21.0678 24.5938 21.0678C24.9073 21.0678 25.208 21.1923 25.4297 21.414C25.6514 21.6357 25.776 21.9364 25.776 22.25C25.776 22.5635 25.6514 22.8642 25.4297 23.086L25.4297 23.086L21.1956 27.3187H38.6562C38.9695 27.3187 39.27 27.4432 39.4915 27.6647L39.2098 27.9464L39.4915 27.6647C39.713 27.8862 39.8375 28.1867 39.8375 28.5C39.8375 28.8133 39.713 29.1137 39.4915 29.3353C39.27 29.5568 38.9695 29.6812 38.6562 29.6812H21.1956Z" fill="white" stroke="white" stroke-width="0.8"/>
</svg>
