<svg width="57" height="57" viewBox="0 0 57 57" fill="none" xmlns="http://www.w3.org/2000/svg">
<rect width="57" height="57" fill="#0A72AD"/>
<path d="M35.8044 30.6812L31.5703 34.914L31.5703 34.914C31.3486 35.1357 31.224 35.4364 31.224 35.75C31.224 36.0635 31.3486 36.3642 31.5703 36.586C31.792 36.8077 32.0927 36.9322 32.4062 36.9322C32.7198 36.9322 33.0205 36.8077 33.2422 36.586L39.4919 30.3363C39.6019 30.2266 39.6891 30.0962 39.7487 29.9527C39.8082 29.8092 39.8389 29.6554 39.8389 29.5C39.8389 29.3446 39.8082 29.1908 39.7487 29.0473C39.6891 28.9037 39.6019 28.7734 39.4919 28.6637L33.2422 22.414C33.0205 22.1923 32.7198 22.0678 32.4062 22.0678C32.0927 22.0678 31.792 22.1923 31.5703 22.414C31.3486 22.6357 31.224 22.9364 31.224 23.25C31.224 23.5635 31.3486 23.8642 31.5703 24.086L31.5703 24.086L35.8044 28.3187H18.3438C18.0305 28.3187 17.73 28.4432 17.5085 28.6647L17.7902 28.9464L17.5085 28.6647C17.287 28.8862 17.1625 29.1867 17.1625 29.5C17.1625 29.8133 17.287 30.1137 17.5085 30.3353C17.73 30.5568 18.0305 30.6812 18.3438 30.6812H35.8044Z" fill="white" stroke="white" stroke-width="0.8"/>
</svg>
